<?xml version="1.0" encoding="UTF-8"?>
<svg id="Layer_2" data-name="Layer 2" xmlns="http://www.w3.org/2000/svg" viewBox="0 0 34.96 39.29">
  <defs>
    <style>
      .cls-1 {
        fill: #5597bc;
      }
    </style>
  </defs>
  <g id="Layer_2-2" data-name="Layer 2">
    <g>
      <path class="cls-1" d="M0,25.89c.36-2.02.51-4.11,1.14-6.05.77-2.4,1.93-4.61,3.79-6.48,2.12-2.14,4.58-3.73,7.1-5.26,1.54-.94,3.25-1.58,4.85-2.42,1.42-.74,2.57-1.85,3.51-3.12.98-1.32,2.14-2.23,3.87-2.2.15,0,.33.04.44-.04,1.2-.78,2.25.03,3.28.4.98.35,1.88.95,2.77,1.51,2.1,1.32,3.62,3.11,4.09,5.6.35,1.83-.03,3.46-1.15,5.05-1.32,1.86-2.34,3.9-2.39,6.34-.04,2.29-.59,4.51-1.38,6.67-.28.77-.38,1.64-.8,2.31-.85,1.38-1.8,2.72-2.84,3.96-.94,1.13-1.98,2.22-3.11,3.16-.92.77-2,1.38-3.07,1.93-1.75.9-3.68,1.22-5.57,1.7-1.21.31-2.39.43-3.5.21-1.91-.39-3.89-.72-5.31-2.37-.57-.67-1.48-1.03-2.15-1.62-.64-.56-1.39-1.15-1.73-1.89-1.07-2.32-2.26-4.65-1.6-7.38-.08,0-.16,0-.24-.01ZM1.53,26.99c.09.02.18.03.26.05-.08,1.41.26,2.68,1.11,3.84,1.72,2.34,3.91,3.76,6.92,3.64.18,0,.37-.01.54.04,1.18.34,2.36.11,3.37-.37,1.71-.82,3.65-1.22,5.08-2.6.95-.92,2.07-1.69,2.89-2.71.94-1.17,1.67-2.52,2.43-3.82.81-1.39,1.33-2.89,1.39-4.51.07-1.93-.12-3.89.57-5.76.14-.38.25-.78.43-1.15.6-1.27,1.25-2.51,1.82-3.8.45-1.01.83-2.05,1.17-3.1.3-.92.52-1.88-.44-2.61-.69-.53-1.39-1.03-2.04-1.6-.81-.71-1.79-.24-2.65-.46-1.2-.31-1.7.49-2.31,1.17-.41.46-.72,1.01-1.17,1.42-.97.87-1.93,1.78-3.04,2.45-1.44.87-3.07,1.44-4.53,2.29-1.68.97-3.28,2.07-4.87,3.19-2.38,1.67-4.32,3.79-5.18,6.58-.78,2.55-1.19,5.21-1.76,7.82ZM31.81,5.56c-.31,1.11-.52,2.09-.87,3.03-.42,1.15-.84,2.33-1.48,3.37-1.06,1.74-1.95,3.56-1.9,5.59.07,2.95-.32,5.75-1.65,8.39-.47.94-.94,1.9-1.58,2.72-.84,1.08-1.83,2.04-2.77,3.03-1.08,1.14-2.24,2.16-3.77,2.71-.84.3-1.59.84-2.43,1.14-1.18.42-2.28,1.14-3.64.99-.87-.1-1.75-.02-2.8-.02.4.25.63.51.88.52,1.43.07,2.89.27,4.29.07,1.55-.22,3.04-.88,4.58-1.25,1.29-.31,2.34-.99,3.28-1.85,1.15-1.07,2.28-2.17,3.34-3.33,1.21-1.33,2.29-2.82,2.78-4.56.63-2.23,1.04-4.52,1.49-6.8.16-.82.06-1.7.25-2.51.42-1.79,1.38-3.34,2.35-4.88.52-.83,1.14-1.59,1.11-2.69-.04-1.37-.55-2.49-1.46-3.67Z"/>
      <path class="cls-1" d="M4.56,25.65c.64-1.87.61-3.89,1.83-5.58.69-.96,1.12-2.11,1.8-3.08.7-.99,1.51-1.92,2.37-2.78.59-.59,1.3-1.06,2.01-1.5,1.41-.87,2.96-1.01,4.56-.68.96.2,1.98.33,2.84.76.9.44,1.58,1.18,1.93,2.27.67,2.14-.1,4.05-.63,6.04-.69,2.58-2.35,4.47-4.12,6.29-1.06,1.1-2.11,2.29-3.38,3.08-1.81,1.13-3.81,1.45-5.91.46-.87-.41-1.6-.88-2.23-1.57-.12-.13-.26-.27-.3-.43-.27-1.09-.51-2.18-.77-3.3ZM6.59,26.22c.14.45.23,1.42.71,2.15.7,1.06,2.05,1.29,3.17,1.29,1.23,0,2.41-.66,3.33-1.57.92-.91,1.77-1.9,2.68-2.82,2.25-2.29,3.49-5.06,3.75-8.23.13-1.64-.49-2.5-1.84-2.82-.67-.15-1.52.4-1.98-.55-.03-.06-.29,0-.44-.02-2.15-.2-3.53,1.16-4.78,2.54-.97,1.07-1.64,2.4-2.49,3.58-1.29,1.79-1.92,3.79-2.12,6.45Z"/>
    </g>
  </g>
</svg>